<svg width="800" height="800" viewBox="0 0 800 800" fill="none" xmlns="http://www.w3.org/2000/svg">
<path d="M0 2C0 0.895429 0.895431 0 2 0H798C799.105 0 800 0.89543 800 2V798C800 799.105 799.105 800 798 800H2C0.895429 800 0 799.105 0 798V2Z" fill="url(#paint0_radial)"/>
<path d="M465.866 344H332.533C325.173 344.009 319.208 349.973 319.199 357.333V442.667C319.208 450.027 325.173 455.991 332.533 456H465.866C466.614 456.003 467.361 455.938 468.098 455.805C474.514 454.731 479.212 449.172 479.199 442.667V357.333C479.191 349.973 473.226 344.009 465.866 344ZM332.533 450.667C328.388 450.666 324.929 447.5 324.565 443.371L377.733 408.608L431.802 450.667H332.533ZM473.866 442.667C473.87 446.581 471.035 449.92 467.173 450.552C466.741 450.63 466.304 450.668 465.866 450.667H440.487L405.157 423.171L436.751 397.907L473.866 420.176V442.667ZM473.866 413.957L437.906 392.381C436.95 391.806 435.737 391.887 434.866 392.584L400.821 419.811L379.501 403.229C378.602 402.531 377.36 402.48 376.407 403.101L324.533 437.019V357.333C324.533 352.915 328.114 349.333 332.533 349.333H465.866C470.284 349.333 473.866 352.915 473.866 357.333V413.957Z" fill="#BFBFBF"/>
<path d="M399.199 360C390.363 360 383.199 367.163 383.199 376C383.208 384.833 390.366 391.991 399.199 392C408.036 392 415.199 384.837 415.199 376C415.199 367.163 408.036 360 399.199 360ZM399.199 386.667C393.308 386.667 388.533 381.891 388.533 376C388.533 370.109 393.308 365.333 399.199 365.333C405.09 365.333 409.866 370.109 409.866 376C409.866 381.891 405.09 386.667 399.199 386.667Z" fill="#BFBFBF"/>
<defs>
<radialGradient id="paint0_radial" cx="0" cy="0" r="1" gradientUnits="userSpaceOnUse" gradientTransform="translate(-38.2221 -374.713) rotate(46.6421) scale(954.851 1259.67)">
<stop stop-color="#F0F0F0"/>
<stop offset="1" stop-color="#F0F0F0"/>
</radialGradient>
</defs>
</svg>
