<svg width="24" height="24" viewBox="0 0 24 24" fill="none" xmlns="http://www.w3.org/2000/svg">
<circle cx="18.1843" cy="17.8842" r="0.634065" transform="rotate(-180 18.1843 17.8842)" fill="#A5ADBC"/>
<circle cx="16.6999" cy="13.6201" r="0.634065" transform="rotate(-180 16.6999 13.6201)" fill="#A5ADBC"/>
<path d="M10.0242 7.08594C10.3406 6.97266 10.4136 6.94921 10.8055 6.94921C11.1974 6.94921 11.2363 7.17893 11.2363 7.57081C11.2363 7.96269 11.2313 8.12109 10.6141 8.12109C9.92658 8.12109 9.64533 7.3125 10.0242 7.08594Z" fill="#A5ADBC"/>
<circle cx="5.80539" cy="5.50412" r="0.634065" transform="rotate(-180 5.80539 5.50412)" fill="#A5ADBC"/>
<path fill-rule="evenodd" clip-rule="evenodd" d="M6.18528 5L5.30037 5.8849L7.84382 8.42835C7.60686 8.62473 7.37236 8.83563 7.14044 9.05991C6.62158 9.56167 6.15217 10.0974 5.73894 10.6333C5.48959 10.9567 5.31255 11.211 5.21562 11.3626L5 11.6997L5.21562 12.0369C5.31255 12.1884 5.48959 12.4428 5.73894 12.7662C6.15217 13.3021 6.62158 13.8378 7.14044 14.3396C8.66132 15.8103 10.2933 16.7055 12 16.7055C13.0768 16.7055 14.1239 16.3491 15.1321 15.7167L17.8148 18.3994L18.6997 17.5144L6.18528 5ZM14.218 14.8025L13.2714 13.856C12.8988 14.0761 12.4641 14.2025 12 14.2025C10.6177 14.2025 9.49709 13.0819 9.49709 11.6996C9.49709 11.2354 9.62344 10.8008 9.84363 10.4282L8.73361 9.31814C8.49118 9.51363 8.24991 9.72789 8.0104 9.95951C7.53848 10.4159 7.10832 10.9068 6.72999 11.3974C6.64827 11.5034 6.57277 11.6045 6.50374 11.6997C6.57277 11.795 6.64827 11.8961 6.72999 12.002C7.10832 12.4927 7.53848 12.9836 8.0104 13.44C9.32032 14.7067 10.6828 15.4541 12 15.4541C12.731 15.4541 13.4759 15.2239 14.218 14.8025ZM10.7909 11.3755C10.7633 11.4788 10.7485 11.5875 10.7485 11.6996C10.7485 12.3908 11.3088 12.9511 12 12.9511C12.1121 12.9511 12.2207 12.9363 12.3241 12.9087L10.7909 11.3755ZM17.0672 14.1343L16.1822 13.2493C16.5791 12.8482 16.9438 12.425 17.27 12.0019C17.3517 11.8959 17.4272 11.7948 17.4963 11.6996C17.4272 11.6044 17.3517 11.5033 17.27 11.3973C16.8917 10.9066 16.4615 10.4158 15.9896 9.95938C14.6797 8.69262 13.3172 7.94527 12 7.94527C11.6732 7.94527 11.3436 7.99128 11.0127 8.07981L10.0228 7.08994C10.6689 6.83235 11.3287 6.69383 12 6.69383C13.7067 6.69383 15.3387 7.589 16.8596 9.05978C17.3784 9.56154 17.8478 10.0972 18.2611 10.6331C18.5104 10.9565 18.6874 11.2109 18.7844 11.3625L19 11.6996L18.7844 12.0367C18.6874 12.1883 18.5104 12.4427 18.2611 12.7661C17.9037 13.2296 17.5042 13.6929 17.0672 14.1343Z" fill="#A5ADBC"/>
</svg>
