<svg width="24" height="24" viewBox="0 0 24 24" fill="none" xmlns="http://www.w3.org/2000/svg">
<path fill-rule="evenodd" clip-rule="evenodd" d="M12 7C13.7067 7 15.3387 7.89518 16.8596 9.36596C17.3784 9.86772 17.8478 10.4034 18.2611 10.9393C18.5104 11.2627 18.6874 11.5171 18.7844 11.6687L19 12.0058L18.7844 12.3429C18.6874 12.4945 18.5104 12.7489 18.2611 13.0723C17.8478 13.6082 17.3784 14.1439 16.8596 14.6456C15.3387 16.1164 13.7067 17.0116 12 17.0116C10.2933 17.0116 8.66134 16.1164 7.14044 14.6456C6.62158 14.1439 6.15217 13.6082 5.73895 13.0723C5.48959 12.7489 5.31255 12.4945 5.21562 12.3429L5 12.0058L5.21562 11.6687C5.31255 11.5171 5.48959 11.2627 5.73895 10.9393C6.15217 10.4034 6.62158 9.86772 7.14044 9.36596C8.66134 7.89518 10.2933 7 12 7ZM17.2699 11.7038C16.8916 11.2131 16.4614 10.7223 15.9895 10.2659C14.6796 8.99912 13.3171 8.25177 11.9999 8.25177C10.6827 8.25177 9.32023 8.99912 8.01031 10.2659C7.53839 10.7223 7.10823 11.2131 6.72989 11.7038C6.64818 11.8098 6.57267 11.9109 6.50364 12.0061C6.57267 12.1013 6.64818 12.2024 6.72989 12.3084C7.10823 12.7991 7.53839 13.29 8.01031 13.7463C9.32023 15.0131 10.6827 15.7605 11.9999 15.7605C13.3171 15.7605 14.6796 15.0131 15.9895 13.7463C16.4614 13.29 16.8916 12.7991 17.2699 12.3084C17.3516 12.2024 17.4271 12.1013 17.4962 12.0061C17.4271 11.9109 17.3516 11.8098 17.2699 11.7038ZM9.49699 12.007C9.49699 13.3893 10.6176 14.5099 11.9999 14.5099C13.3822 14.5099 14.5028 13.3893 14.5028 12.007C14.5028 10.6246 13.3822 9.50406 11.9999 9.50406C10.6176 9.50406 9.49699 10.6246 9.49699 12.007ZM13.2509 12.0065C13.2509 12.6976 12.6906 13.2579 11.9994 13.2579C11.3083 13.2579 10.748 12.6976 10.748 12.0065C10.748 11.3153 11.3083 10.755 11.9994 10.755C12.6906 10.755 13.2509 11.3153 13.2509 12.0065Z" fill="#A5ADBC"/>
</svg>
